<svg id="Capa_1" enable-background="new 0 0 512 512" height="512" viewBox="0 0 512 512" width="512" xmlns="http://www.w3.org/2000/svg"><path d="m166.65 165.372c-12.64-2.835-38.191-3.747-67.303 21.998-11.924 10.542-29.541 30.564-42.018 51.531-18.711 31.442-22.29 57.929-10.637 78.728 18.755 33.465 52.053 33.465 62.995 33.465 1 0 1.959-.008 2.868-.016l.62-.005c.662-.006 1.3-.011 1.912-.011h9.468l76.399-160.389-5.493-7.27c-6.789-8.984-17.021-15.388-28.811-18.031z" fill="#ff9100"/><path d="m454.672 237.361c-12.479-20.966-30.095-40.987-42.016-51.528-29.115-25.746-54.664-24.834-67.305-22-11.791 2.644-22.022 9.048-28.811 18.033l-5.493 7.27 76.399 160.388h9.469c.612 0 1.251.005 1.912.011l.622.005c.909.008 1.867.016 2.866.016 10.942 0 44.24 0 62.995-33.466 11.651-20.797 8.072-47.284-10.638-78.729z" fill="#ff5b5b"/><path d="m419.39 387.62c0 25.98-6.069 48.54-18.018 67.06-10.619 16.45-25.767 29.55-45.025 38.94-27.907 13.62-59.783 17.28-85.15 18.14-5.319.18-10.349-9.76-14.998-9.76-.07 0-.13 0-.2.01-4.589.27-9.559 9.93-14.798 9.75-25.357-.86-57.233-4.52-85.15-18.14-19.248-9.39-34.396-22.49-45.014-38.94-11.959-18.52-18.018-41.09-18.018-67.06 0-36.54 8.679-59.61 18.738-86.32 3.29-8.76 6.699-17.81 10.209-28.34 9.709-29.12 21.537-59.24 42.145-82.29 23.207-25.94 53.274-38.59 91.889-38.63h.2c38.725 0 68.842 12.64 92.089 38.63 20.617 23.06 32.446 53.18 42.145 82.29 3.5 10.48 6.909 19.53 10.199 28.29 10.068 26.76 18.757 49.83 18.757 86.37z" fill="#ffb641"/><path d="m419.39 387.62c0 25.98-6.069 48.54-18.018 67.06-10.619 16.45-25.767 29.55-45.025 38.94-27.907 13.62-59.783 17.28-85.15 18.14-5.319.18-10.349-9.76-14.998-9.76-.07 0-.13 0-.2.01v-349.97h.2c38.725 0 68.842 12.64 92.089 38.63 20.617 23.06 32.446 53.18 42.145 82.29 3.5 10.48 6.909 19.53 10.199 28.29 10.069 26.76 18.758 49.83 18.758 86.37z" fill="#ff9100"/><path d="m330.991 37.76c0 10.1-3.939 19.59-11.089 26.73l-36.945 36.88c-7.379 7.36-17.068 11.04-26.757 11.04h-.2c-9.619-.05-19.228-3.73-26.547-11.04l-36.956-36.88c-7.149-7.14-11.089-16.63-11.089-26.73 0-10.09 3.94-19.58 11.089-26.72 14.748-14.72 38.755-14.72 53.503 0l10 9.98.2.2 10.199-10.18c14.758-14.72 38.755-14.72 53.503 0 7.149 7.14 11.089 16.63 11.089 26.72z" fill="#ff5b5b"/><path d="m215.925 255.548c-8.283 0-14.998 6.716-14.998 15v22.569c0 8.284 6.715 15 14.998 15s14.998-6.716 14.998-15v-22.569c0-8.284-6.715-15-14.998-15z" fill="#4f6c77"/><path d="m296.076 255.548c-8.283 0-14.998 6.716-14.998 15v22.569c0 8.284 6.715 15 14.998 15s14.998-6.716 14.998-15v-22.569c0-8.284-6.715-15-14.998-15z" fill="#395a61"/><path d="m271.198 404.94v106.82c-5.319.18-10.349.24-14.998.24h-.2c-4.589 0-9.549-.06-14.798-.24v-106.82z" fill="#395a61"/><path d="m271.198 404.94v106.82c-5.319.18-10.349.24-14.998.24h-.2v-107.06z" fill="#304950"/><path d="m300.165 370.88c0 13.48-8.979 24.46-14.338 29.8-5.339 5.33-16.288 14.26-29.626 14.26h-.201c-13.248-.09-24.117-8.96-29.416-14.26-5.359-5.34-14.348-16.32-14.348-29.8 0-12.48 6.529-22.38 17.898-27.15 6.339-2.66 13.848-3.77 25.867-3.78h.2c12.139 0 19.688 1.1 26.067 3.78 11.377 4.77 17.897 14.67 17.897 27.15z" fill="#4f6c77"/><path d="m256.2 112.41h-.2v-91.39l.2.2 10.199-10.18c14.758-14.72 38.755-14.72 53.503 0 7.149 7.14 11.089 16.63 11.089 26.72 0 10.1-3.939 19.59-11.089 26.73l-36.945 36.88c-7.379 7.36-17.068 11.04-26.757 11.04z" fill="#ff0059"/><path d="m300.165 370.88c0 13.48-8.979 24.46-14.338 29.8-5.339 5.33-16.288 14.26-29.626 14.26h-.201v-74.99h.2c12.139 0 19.688 1.1 26.067 3.78 11.378 4.77 17.898 14.67 17.898 27.15z" fill="#395a61"/></svg>